<?xml version="1.0" encoding="UTF-8" standalone="no"?><!DOCTYPE svg  PUBLIC '-//W3C//DTD SVG 1.1//EN'  'http://www.w3.org/Graphics/SVG/1.1/DTD/svg11.dtd' [
	<!ENTITY stroke_color "#000000">
	<!ENTITY fill_color "#FFFFFF">
]><svg enable-background="new 0 0 55 55" viewBox="0 0 55 55" height="55" width="55" version="1.1" xmlns="http://www.w3.org/2000/svg">
 <metadata id="metadata3087"/>
 <g display="block" id="activity-browse" transform="matrix(0.5 0 0 0.5 0.139 25.424)">
  <circle cy="27.5" stroke-width="3.5" r="19.903" display="inline" fill="&fill_color;" stroke="&stroke_color;" id="circle3067" cx="27.375"/>
  <g display="inline" id="g3069">
   <path stroke-width="3.5" d="m 27.376,7.598 c 0,0 -11.205,8.394 -11.205,19.976 0,11.583 11.205,19.829 11.205,19.829" fill="&fill_color;" stroke="&stroke_color;" id="path3071"/>
   <path stroke-width="3.5" d="m 27.376,7.598 c 0,0 11.066,9.141 11.066,19.976 0,10.839 -11.066,19.829 -11.066,19.829" fill="&fill_color;" stroke="&stroke_color;" id="path3073"/>
   <line stroke-width="3.5" x1="27.376" x2="27.376" y1="7.598" y2="47.4" fill="&fill_color;" stroke="&stroke_color;" id="line3075"/>
   <line stroke-width="3.5" x1="27.376" x2="27.376" y1="7.598" y2="47.4" fill="&fill_color;" stroke="&stroke_color;" id="line3077"/>
   <line stroke-width="3.5" x1="27.376" x2="27.376" y1="7.598" y2="47.4" fill="&fill_color;" stroke="&stroke_color;" id="line3079"/>
   <line stroke-width="3.5" x1="7.472" x2="47.28" y1="27.5" y2="27.5" fill="&fill_color;" stroke="&stroke_color;" id="line3081"/>
  </g>
 </g>
 <g display="block" id="activity-write" transform="matrix(0.5 0 0 0.5 25.06 24.668)">
  <g display="inline" id="g3193">
   <g id="g3195">
    <path stroke-width="3.5" d="m 36.519,37.127 c 0,0.008 -0.031,0.047 -0.034,0.049 -0.055,0.07 -0.131,0.113 -0.196,0.162 -0.012,0.016 -0.012,0.035 -0.022,0.043 l -7.826,5.037 c -0.096,0.064 -0.218,0.053 -0.307,-0.02 -0.087,-0.072 -0.115,-0.191 -0.069,-0.295 L 31.54,33.837 33.628,31.12 43.82,17.625 V 6.088 H 22.876 L 10.932,18.027 V 48.914 H 43.819 V 27.802 l -5.469,7.054 -1.831,2.271 z" fill="&fill_color;" stroke="&stroke_color;" id="path3197"/>
    <path stroke-width="3.5" d="m 43.818,17.626 -10.192,13.495 -2.088,2.717 -3.475,8.266 c -0.046,0.104 -0.018,0.223 0.069,0.295 0.089,0.072 0.211,0.084 0.307,0.02 l 7.826,-5.037 c 0.011,-0.008 0.011,-0.027 0.022,-0.043 0.065,-0.049 0.142,-0.092 0.196,-0.162 0.003,-0.002 0.034,-0.041 0.034,-0.049 l 1.831,-2.271 5.469,-7.054 8.011,-10.329 c 0.022,-0.023 0.149,-0.203 0.149,-0.203 0.096,-0.161 0.148,-0.345 0.148,-0.556 0,-0.061 0,-0.118 -0.012,-0.176 -0.087,-0.763 -0.715,-1.682 -1.639,-2.413 -0.923,-0.728 -1.969,-1.123 -2.728,-1.034 -0.326,0.042 -0.789,0.375 -0.789,0.375 l -3.139,4.159 z" fill="&fill_color;" stroke="&stroke_color;" id="path3199"/>
   </g>
   <polyline stroke-width="3.5" fill="&fill_color;" stroke="&stroke_color;" id="polyline3201" points="10.932,18.027 22.876,18.027 22.876,6.088"/>
  </g>
 </g>
 <rect x="3.01" y="8.499" fill="&stroke_color;" height="16" id="rect3319" width="22"/>
 <g id="g3255" transform="matrix(0.46375 0 0 0.46375 -38.03 -79.56)">
  <path d="m 102.663,205.694 c -2.07,-0.034 -3.716,-1.688 -3.685,-3.698 0.032,-2.104 1.733,-3.761 3.821,-3.724 2.029,0.035 3.687,1.721 3.681,3.739 -0.005,2.099 -1.685,3.72 -3.817,3.683 z" fill="&fill_color;" id="path3209"/>
  <path d="M 135.948,225.726 H 88.485 v -36.834 h 47.462 v 36.834 z m -44.811,-2.651 h 42.16 v -31.533 h -42.16 v 31.533 z" fill="&stroke_color;" id="path3211"/>
  <path d="M 131.272,221.051 H 93.161 v -27.484 h 38.111 v 27.484 z M 94.461,219.75 h 35.511 V 194.867 H 94.461 v 24.883 z" fill="&stroke_color;" id="path3213"/>
  <circle cy="180.13" r="2.114" fill="&stroke_color;" id="circle3215" cx="112.22"/>
  <path d="m 101.315,190.439 c -0.256,0 -0.512,-0.098 -0.707,-0.293 -0.391,-0.391 -0.391,-1.023 0,-1.414 l 6.623,-6.623 c 0.391,-0.391 1.023,-0.391 1.414,0 0.391,0.391 0.391,1.023 0,1.414 l -6.623,6.623 c -0.195,0.195 -0.451,0.293 -0.707,0.293 z" fill="&stroke_color;" id="path3217"/>
  <path d="m 122.918,190.439 c -0.256,0 -0.512,-0.098 -0.707,-0.293 l -6.624,-6.623 c -0.391,-0.39 -0.391,-1.023 0,-1.414 0.391,-0.391 1.023,-0.391 1.414,0 l 6.624,6.623 c 0.391,0.391 0.391,1.023 0,1.414 -0.195,0.195 -0.451,0.293 -0.707,0.293 z" fill="&stroke_color;" id="path3219"/>
  <polygon fill="&fill_color;" id="polygon3221" points="109.114,216.681 130.564,216.681 130.344,220.4 93.811,220.4 93.811,213.334 "/>
  <polygon fill="&fill_color;" id="polygon3223" points="122.499,199.135 127.323,212.654 123.572,212.654 123.572,216.681 121.615,216.681 121.615,212.652 117.72,212.652 "/>
  <polygon fill="&fill_color;" id="polygon3225" points="112.758,205.469 116.015,214.6 113.482,214.6 113.482,217.319 112.16,217.319 112.16,214.599 109.53,214.599 "/>
 </g>
 <g display="block" id="activity-read" transform="matrix(0.5 0 0 0.5 24.897 0.648)">
  <path stroke-width="3.5" d="m 27.904,11.023 h -0.002 c 0,-0.002 -1.71,-2.053 -9.376,-2.504 C 10.86,8.07 6.843,10.121 6.84,10.122 4.942,10.741 3.345,11.857 3.345,13.616 v 27.702 c 0,2.025 1.235,3.494 3.495,3.494 0.003,0 4.41,-1.35 10.004,-1.35 5.589,-0.001 11.061,2.253 11.061,2.253" display="inline" fill="&fill_color;" stroke="&stroke_color;" id="path3486" stroke-linejoin="round"/>
  <path stroke-width="3.5" d="m 27.898,11.023 0,0 c 0,-0.002 1.715,-2.053 9.377,-2.504 7.668,-0.449 11.686,1.602 11.688,1.603 1.897,0.619 3.494,1.735 3.494,3.494 v 27.702 c 0,2.025 -1.233,3.494 -3.494,3.494 -0.003,0 -4.409,-1.35 -10.004,-1.35 -5.589,-0.001 -11.062,2.253 -11.062,2.253" display="inline" fill="&fill_color;" stroke="&stroke_color;" id="path3488" stroke-linejoin="round"/>
  <line stroke-width="3.5" x1="27.898" x2="27.9" display="inline" y1="11.02" y2="45.717" fill="&fill_color;" stroke="&stroke_color;" id="line3490" stroke-linecap="round" stroke-linejoin="round"/>
  <path stroke-width="3.5" d="m 32.566,44.275 c 0,0 -0.031,2.906 -4.666,2.906 -4.632,0 -4.663,-2.906 -4.663,-2.906" display="inline" fill="&fill_color;" stroke="&stroke_color;" id="path3492" stroke-linecap="round" stroke-linejoin="round"/>
 </g>
</svg>
